<svg width="900" height="1200" viewBox="0 0 900 1200" fill="none" xmlns="http://www.w3.org/2000/svg">
  <rect width="900" height="1200" rx="44" fill="#F3EBDD"/>
  <rect x="54" y="54" width="792" height="1092" rx="36" fill="#E7D9C7"/>
  <ellipse cx="450" cy="1015" rx="290" ry="92" fill="#C49A73" fill-opacity="0.22"/>
  <circle cx="450" cy="405" r="220" fill="#2D4A3E" fill-opacity="0.08"/>
  <path d="M309 364C309 278.6 378.4 209 463.8 209H483.2C568.6 209 638 278.6 638 364V420H309V364Z" fill="#2D4A3E"/>
  <path d="M317 420C317 359.3 365.3 311 426 311H521C581.7 311 630 359.3 630 420V471H317V420Z" fill="#2D4A3E"/>
  <ellipse cx="450" cy="360" rx="122" ry="132" fill="#C4956A"/>
  <path d="M342 348C342 279.2 395.2 226 464 226H473C541.8 226 595 279.2 595 348V431H342V348Z" fill="#1F2E28"/>
  <path d="M320 447C320 405.8 352.8 373 394 373H441C482.2 373 515 405.8 515 447V577H320V447Z" fill="#1F2E28"/>
  <path d="M501 447C501 405.8 533.8 373 575 373H622C663.2 373 696 405.8 696 447V577H501V447Z" fill="#1F2E28"/>
  <circle cx="385" cy="339" r="18" fill="#1F2E28"/>
  <circle cx="515" cy="339" r="18" fill="#1F2E28"/>
  <path d="M410 430C428 457 470 457 488 430" stroke="#8B5C3C" stroke-width="10" stroke-linecap="round"/>
  <path d="M365 607C381 657 420 692 450 692C480 692 519 657 535 607" stroke="#C4956A" stroke-width="16" stroke-linecap="round"/>
  <rect x="219" y="765" width="462" height="184" rx="28" fill="#FFF9F1" fill-opacity="0.8"/>
  <path d="M267 820H633" stroke="#4A7C6B" stroke-width="8" stroke-linecap="round"/>
  <path d="M267 867H580" stroke="#4A7C6B" stroke-width="8" stroke-linecap="round"/>
  <path d="M267 914H548" stroke="#4A7C6B" stroke-width="8" stroke-linecap="round"/>
  <circle cx="248" cy="256" r="64" fill="#4A7C6B" fill-opacity="0.16"/>
  <circle cx="646" cy="242" r="42" fill="#2D4A3E" fill-opacity="0.12"/>
</svg>
